<svg xmlns="http://www.w3.org/2000/svg" viewBox="0 0 256 256" role="img" aria-label="Writedown">
  <defs>
    <linearGradient id="g" x1="0" y1="0" x2="1" y2="1">
      <stop offset="0" stop-color="#0ea5e9"/>
      <stop offset="1" stop-color="#2563eb"/>
    </linearGradient>
  </defs>
  <rect width="256" height="256" rx="56" fill="#0f172a"/>
  <path
    d="M64 80c0-8.8 7.2-16 16-16h96c8.8 0 16 7.2 16 16v96c0 8.8-7.2 16-16 16H80c-8.8 0-16-7.2-16-16V80z"
    fill="url(#g)"
    opacity="0.95"
  />
  <path
    d="M92 116c2-8 8.5-14 16.7-14 6.3 0 12.1 3.3 15.3 8.4 3.2-5.1 9-8.4 15.3-8.4 8.2 0 14.7 6 16.7 14l7 28c0.7 2.9 0.9 5.8 0.9 8.8 0 16.2-13.1 29.2-29.2 29.2-10.1 0-19-5.1-24-12.9-5 7.8-13.9 12.9-24 12.9-16.1 0-29.2-13-29.2-29.2 0-3 0.2-5.9 0.9-8.8l7-28z"
    fill="#ffffff"
    opacity="0.95"
  />
  <path d="M74 186h108" stroke="rgba(255,255,255,0.25)" stroke-width="6" stroke-linecap="round"/>
</svg>

